<?xml version="1.0" standalone="no"?>
<!DOCTYPE svg PUBLIC "-//W3C//DTD SVG 20010904//EN"
 "http://www.w3.org/TR/2001/REC-SVG-20010904/DTD/svg10.dtd">
<svg version="1.0" xmlns="http://www.w3.org/2000/svg"
 width="700.000000pt" height="700.000000pt" viewBox="0 0 700.000000 700.000000"
 preserveAspectRatio="xMidYMid meet">
<metadata>
Created by potrace 1.14, written by Peter Selinger 2001-2017
</metadata>
<g transform="translate(0.000000,700.000000) scale(0.100000,-0.100000)"
fill="#000000" stroke="none">
<path d="M2070 5911 c0 -11 224 -629 249 -686 5 -11 28 -72 51 -135 92 -251
223 -607 575 -1555 352 -948 420 -1131 451 -1220 8 -22 18 -49 23 -60 5 -11
21 -51 35 -90 13 -38 67 -185 119 -325 52 -140 137 -369 188 -507 51 -139 96
-253 99 -253 5 0 6 4824 1 4840 0 3 -404 5 -896 5 -748 0 -895 -2 -895 -14z"/>
<path d="M5132 5922 c-5 -1 -8 -1721 -3 -1824 1 -15 70 -16 930 -16 l930 -1
-2 922 -2 922 -923 0 c-507 0 -925 -1 -930 -3z"/>
<path d="M1295 4779 c-6 -17 -40 -114 -110 -319 -29 -85 -95 -274 -145 -420
-50 -146 -116 -335 -145 -420 -29 -85 -94 -274 -145 -420 -50 -146 -98 -284
-105 -307 l-13 -42 670 0 c511 0 669 3 665 12 -2 7 -20 59 -40 117 -20 58 -75
218 -122 355 -48 138 -119 347 -160 465 -62 183 -119 349 -310 905 -32 91 -33
93 -40 74z"/>
<path d="M5129 3118 c0 -7 -1 -469 -2 -1025 -1 -668 1 -1014 8 -1016 9 -3
1830 -1 1847 2 4 0 7 462 7 1026 l-1 1025 -929 0 c-736 0 -929 -3 -930 -12z"/>
<path d="M319 1939 c-5 -3 -13 -19 -18 -35 -17 -54 -91 -269 -101 -289 -5 -11
-22 -60 -39 -110 -16 -49 -55 -162 -86 -250 -31 -88 -57 -164 -58 -169 -2 -9
2546 -17 2564 -9 4 1 -4 33 -17 70 -77 228 -261 755 -271 778 -8 21 -13 21
-986 20 -538 0 -983 -2 -988 -6z"/>
</g>
</svg>
